<?xml version="1.0" encoding="UTF-8" standalone="no"?>
<svg
   xmlns:dc="http://purl.org/dc/elements/1.1/"
   xmlns:cc="http://creativecommons.org/ns#"
   xmlns:rdf="http://www.w3.org/1999/02/22-rdf-syntax-ns#"
   xmlns:svg="http://www.w3.org/2000/svg"
   xmlns="http://www.w3.org/2000/svg"
   viewBox="0 0 793.70667 1122.52"
   height="1122.52"
   width="793.70667"
   xml:space="preserve"
   id="svg2"
   version="1.1"><metadata
     id="metadata8"><rdf:RDF><cc:Work
         rdf:about=""><dc:format>image/svg+xml</dc:format><dc:type
           rdf:resource="http://purl.org/dc/dcmitype/StillImage" /></cc:Work></rdf:RDF></metadata><defs
     id="defs6"><clipPath
       id="clipPath20"
       clipPathUnits="userSpaceOnUse"><path
         id="path18"
         d="M 0,0 H 595.28 V 841.89 H 0 Z" /></clipPath><clipPath
       id="clipPath30"
       clipPathUnits="userSpaceOnUse"><path
         id="path28"
         d="M 288.0425,519.7173 V 379.0859 h 2.5 v 140.6314 z" /></clipPath><clipPath
       id="clipPath36"
       clipPathUnits="userSpaceOnUse"><path
         id="path34"
         d="M 0,0 H 595.28 V 841.89 H 0 Z" /></clipPath><clipPath
       id="clipPath48"
       clipPathUnits="userSpaceOnUse"><path
         id="path46"
         d="m 288.0011,310.4999 h 10.9815 v 73.5075 h -10.9815 z" /></clipPath><clipPath
       id="clipPath54"
       clipPathUnits="userSpaceOnUse"><path
         id="path52"
         d="M 0,0 H 595.28 V 841.89 H 0 Z" /></clipPath><clipPath
       id="clipPath66"
       clipPathUnits="userSpaceOnUse"><path
         id="path64"
         d="M 307.4307,519.7173 V 379.0859 h -2.5 v 140.6314 z" /></clipPath><clipPath
       id="clipPath72"
       clipPathUnits="userSpaceOnUse"><path
         id="path70"
         d="M 0,0 H 595.28 V 841.89 H 0 Z" /></clipPath><clipPath
       id="clipPath84"
       clipPathUnits="userSpaceOnUse"><path
         id="path82"
         d="m 307.4721,310.4999 h -10.9814 v 73.5075 h 10.9814 z" /></clipPath><clipPath
       id="clipPath90"
       clipPathUnits="userSpaceOnUse"><path
         id="path88"
         d="M 0,0 H 595.28 V 841.89 H 0 Z" /></clipPath><clipPath
       id="clipPath102"
       clipPathUnits="userSpaceOnUse"><path
         id="path100"
         d="m 304.8752,635.7492 h 16.11399 v 21.20249 H 304.8752 Z" /></clipPath><clipPath
       id="clipPath114"
       clipPathUnits="userSpaceOnUse"><path
         id="path112"
         d="m 304.8752,617.5467 h 16.114 v 21.2025 h -16.114 z" /></clipPath><clipPath
       id="clipPath120"
       clipPathUnits="userSpaceOnUse"><path
         id="path118"
         d="M 0,0 H 595.28 V 841.89 H 0 Z" /></clipPath><clipPath
       id="clipPath132"
       clipPathUnits="userSpaceOnUse"><path
         id="path130"
         d="m 274.6367,601.3932 h 16.11399 v 21.20249 H 274.6367 Z" /></clipPath><clipPath
       id="clipPath144"
       clipPathUnits="userSpaceOnUse"><path
         id="path142"
         d="m 290.7507,583.1908 h -16.114 v 21.2024 h 16.114 z" /></clipPath><clipPath
       id="clipPath150"
       clipPathUnits="userSpaceOnUse"><path
         id="path148"
         d="M 0,0 H 595.28 V 841.89 H 0 Z" /></clipPath><clipPath
       id="clipPath162"
       clipPathUnits="userSpaceOnUse"><path
         id="path160"
         d="m 304.8752,567.0373 h 16.11399 v 21.20249 H 304.8752 Z" /></clipPath><clipPath
       id="clipPath174"
       clipPathUnits="userSpaceOnUse"><path
         id="path172"
         d="m 304.8752,548.8348 h 16.114 v 21.2025 h -16.114 z" /></clipPath><clipPath
       id="clipPath180"
       clipPathUnits="userSpaceOnUse"><path
         id="path178"
         d="M 0,0 H 595.28 V 841.89 H 0 Z" /></clipPath><clipPath
       id="clipPath192"
       clipPathUnits="userSpaceOnUse"><path
         id="path190"
         d="m 304.8752,500.7988 h 16.11399 v 21.20249 H 304.8752 Z" /></clipPath><clipPath
       id="clipPath204"
       clipPathUnits="userSpaceOnUse"><path
         id="path202"
         d="m 304.8752,482.5964 h 16.114 v 21.2024 h -16.114 z" /></clipPath><clipPath
       id="clipPath210"
       clipPathUnits="userSpaceOnUse"><path
         id="path208"
         d="M 0,0 H 595.28 V 841.89 H 0 Z" /></clipPath><clipPath
       id="clipPath222"
       clipPathUnits="userSpaceOnUse"><path
         id="path220"
         d="m 304.8752,432.0869 h 16.11399 v 21.20249 H 304.8752 Z" /></clipPath><clipPath
       id="clipPath234"
       clipPathUnits="userSpaceOnUse"><path
         id="path232"
         d="m 304.8752,413.8844 h 16.114 v 21.2025 h -16.114 z" /></clipPath><clipPath
       id="clipPath240"
       clipPathUnits="userSpaceOnUse"><path
         id="path238"
         d="M 0,0 H 595.28 V 841.89 H 0 Z" /></clipPath><clipPath
       id="clipPath252"
       clipPathUnits="userSpaceOnUse"><path
         id="path250"
         d="m 275.2666,533.5383 h 15.48412 v 20.34554 H 275.2666 Z" /></clipPath><clipPath
       id="clipPath264"
       clipPathUnits="userSpaceOnUse"><path
         id="path262"
         d="m 290.7507,516.1928 h -15.4841 v 20.3455 h 15.4841 z" /></clipPath><clipPath
       id="clipPath270"
       clipPathUnits="userSpaceOnUse"><path
         id="path268"
         d="M 0,0 H 595.28 V 841.89 H 0 Z" /></clipPath><clipPath
       id="clipPath282"
       clipPathUnits="userSpaceOnUse"><path
         id="path280"
         d="m 274.6367,466.4429 h 16.11399 v 21.20249 H 274.6367 Z" /></clipPath><clipPath
       id="clipPath294"
       clipPathUnits="userSpaceOnUse"><path
         id="path292"
         d="m 290.7507,448.2404 h -16.114 v 21.2025 h 16.114 z" /></clipPath><clipPath
       id="clipPath300"
       clipPathUnits="userSpaceOnUse"><path
         id="path298"
         d="M 0,0 H 595.28 V 841.89 H 0 Z" /></clipPath><clipPath
       id="clipPath312"
       clipPathUnits="userSpaceOnUse"><path
         id="path310"
         d="m 274.6367,397.731 h 16.11399 v 21.20249 H 274.6367 Z" /></clipPath><clipPath
       id="clipPath324"
       clipPathUnits="userSpaceOnUse"><path
         id="path322"
         d="m 290.7507,379.5285 h -16.114 v 21.2025 h 16.114 z" /></clipPath><clipPath
       id="clipPath330"
       clipPathUnits="userSpaceOnUse"><path
         id="path328"
         d="M 0,0 H 595.28 V 841.89 H 0 Z" /></clipPath><clipPath
       id="clipPath342"
       clipPathUnits="userSpaceOnUse"><path
         id="path340"
         d="m 307.4307,517.7173 v 140.6313 h -2.5 V 517.7173 Z" /></clipPath><clipPath
       id="clipPath348"
       clipPathUnits="userSpaceOnUse"><path
         id="path346"
         d="M 0,0 H 595.28 V 841.89 H 0 Z" /></clipPath><clipPath
       id="clipPath360"
       clipPathUnits="userSpaceOnUse"><path
         id="path358"
         d="m 296.4906,653.4271 h 10.98147 v 73.50754 H 296.4906 Z" /></clipPath><clipPath
       id="clipPath372"
       clipPathUnits="userSpaceOnUse"><path
         id="path370"
         d="m 288.0425,517.7173 v 140.6313 h 2.5 V 517.7173 Z" /></clipPath><clipPath
       id="clipPath378"
       clipPathUnits="userSpaceOnUse"><path
         id="path376"
         d="M 0,0 H 595.28 V 841.89 H 0 Z" /></clipPath><clipPath
       id="clipPath390"
       clipPathUnits="userSpaceOnUse"><path
         id="path388"
         d="m 288.0011,653.4271 h 10.98147 v 73.50754 H 288.0011 Z" /></clipPath><clipPath
       id="clipPath402"
       clipPathUnits="userSpaceOnUse"><path
         id="path400"
         d="m 361.6065,607.7704 -73.7383,45.9088 1.3213,2.1223 73.7383,-45.9088 z" /></clipPath><clipPath
       id="clipPath408"
       clipPathUnits="userSpaceOnUse"><path
         id="path406"
         d="M 0,0 H 595.28 V 841.89 H 0 Z" /></clipPath><clipPath
       id="clipPath420"
       clipPathUnits="userSpaceOnUse"><path
         id="path418"
         d="m 361.6065,539.0616 -73.7383,45.9088 1.3213,2.1223 73.7383,-45.9088 z" /></clipPath><clipPath
       id="clipPath426"
       clipPathUnits="userSpaceOnUse"><path
         id="path424"
         d="M 0,0 H 595.28 V 841.89 H 0 Z" /></clipPath><clipPath
       id="clipPath438"
       clipPathUnits="userSpaceOnUse"><path
         id="path436"
         d="m 361.6065,472.8232 -73.7383,45.9088 1.3213,2.1222 73.7383,-45.9087 z" /></clipPath><clipPath
       id="clipPath444"
       clipPathUnits="userSpaceOnUse"><path
         id="path442"
         d="M 0,0 H 595.28 V 841.89 H 0 Z" /></clipPath><clipPath
       id="clipPath456"
       clipPathUnits="userSpaceOnUse"><path
         id="path454"
         d="m 361.6116,404.1113 -73.7383,45.9088 1.3213,2.1222 73.7384,-45.9087 z" /></clipPath><clipPath
       id="clipPath462"
       clipPathUnits="userSpaceOnUse"><path
         id="path460"
         d="M 0,0 H 595.28 V 841.89 H 0 Z" /></clipPath><clipPath
       id="clipPath474"
       clipPathUnits="userSpaceOnUse"><path
         id="path472"
         d="m 234.0143,369.7553 73.7384,45.9088 -1.3214,2.1223 -73.7383,-45.9088 z" /></clipPath><clipPath
       id="clipPath480"
       clipPathUnits="userSpaceOnUse"><path
         id="path478"
         d="M 0,0 H 595.28 V 841.89 H 0 Z" /></clipPath><clipPath
       id="clipPath492"
       clipPathUnits="userSpaceOnUse"><path
         id="path490"
         d="m 234.0143,438.4672 73.7384,45.9088 -1.3214,2.1223 -73.7383,-45.9088 z" /></clipPath><clipPath
       id="clipPath498"
       clipPathUnits="userSpaceOnUse"><path
         id="path496"
         d="M 0,0 H 595.28 V 841.89 H 0 Z" /></clipPath><clipPath
       id="clipPath510"
       clipPathUnits="userSpaceOnUse"><path
         id="path508"
         d="m 234.0143,504.7057 73.7384,45.9088 -1.3214,2.1223 -73.7383,-45.9088 z" /></clipPath><clipPath
       id="clipPath516"
       clipPathUnits="userSpaceOnUse"><path
         id="path514"
         d="M 0,0 H 595.28 V 841.89 H 0 Z" /></clipPath><clipPath
       id="clipPath528"
       clipPathUnits="userSpaceOnUse"><path
         id="path526"
         d="m 234.0143,573.4176 73.7384,45.9088 -1.3214,2.1223 -73.7383,-45.9088 z" /></clipPath><clipPath
       id="clipPath534"
       clipPathUnits="userSpaceOnUse"><path
         id="path532"
         d="M 0,0 H 595.28 V 841.89 H 0 Z" /></clipPath><clipPath
       id="clipPath546"
       clipPathUnits="userSpaceOnUse"><path
         id="path544"
         d="m 219.683,575.9858 16.3495,0.2854 0.2655,-15.2097 -16.3495,-0.2854 z" /></clipPath><clipPath
       id="clipPath552"
       clipPathUnits="userSpaceOnUse"><path
         id="path550"
         d="M 0,0 H 595.28 V 841.89 H 0 Z" /></clipPath><clipPath
       id="clipPath564"
       clipPathUnits="userSpaceOnUse"><path
         id="path562"
         d="m 375.7691,542.7995 -16.3495,-0.2854 0.2655,-15.2097 16.3495,0.2854 z" /></clipPath><clipPath
       id="clipPath570"
       clipPathUnits="userSpaceOnUse"><path
         id="path568"
         d="M 0,0 H 595.28 V 841.89 H 0 Z" /></clipPath><clipPath
       id="clipPath582"
       clipPathUnits="userSpaceOnUse"><path
         id="path580"
         d="m 375.7691,476.7041 -16.3495,-0.2854 0.2655,-15.2097 16.3495,0.2854 z" /></clipPath><clipPath
       id="clipPath588"
       clipPathUnits="userSpaceOnUse"><path
         id="path586"
         d="M 0,0 H 595.28 V 841.89 H 0 Z" /></clipPath><clipPath
       id="clipPath600"
       clipPathUnits="userSpaceOnUse"><path
         id="path598"
         d="m 375.7691,407.7384 -16.3495,-0.2854 0.2655,-15.2097 16.3495,0.2854 z" /></clipPath><clipPath
       id="clipPath606"
       clipPathUnits="userSpaceOnUse"><path
         id="path604"
         d="M 0,0 H 595.28 V 841.89 H 0 Z" /></clipPath><clipPath
       id="clipPath618"
       clipPathUnits="userSpaceOnUse"><path
         id="path616"
         d="m 375.7691,611.7058 -16.3495,-0.2854 0.2655,-15.2097 16.3495,0.2854 z" /></clipPath><clipPath
       id="clipPath624"
       clipPathUnits="userSpaceOnUse"><path
         id="path622"
         d="M 0,0 H 595.28 V 841.89 H 0 Z" /></clipPath><clipPath
       id="clipPath636"
       clipPathUnits="userSpaceOnUse"><path
         id="path634"
         d="m 219.683,507.7474 16.3495,0.2853 0.2655,-15.2096 -16.3495,-0.2854 z" /></clipPath><clipPath
       id="clipPath642"
       clipPathUnits="userSpaceOnUse"><path
         id="path640"
         d="M 0,0 H 595.28 V 841.89 H 0 Z" /></clipPath><clipPath
       id="clipPath654"
       clipPathUnits="userSpaceOnUse"><path
         id="path652"
         d="m 219.683,441.0355 16.3495,0.2853 0.2655,-15.2096 -16.3495,-0.2854 z" /></clipPath><clipPath
       id="clipPath660"
       clipPathUnits="userSpaceOnUse"><path
         id="path658"
         d="M 0,0 H 595.28 V 841.89 H 0 Z" /></clipPath><clipPath
       id="clipPath672"
       clipPathUnits="userSpaceOnUse"><path
         id="path670"
         d="m 219.683,372.5813 16.3495,0.2854 0.2655,-15.2097 -16.3495,-0.2854 z" /></clipPath><clipPath
       id="clipPath678"
       clipPathUnits="userSpaceOnUse"><path
         id="path676"
         d="M 0,0 H 595.28 V 841.89 H 0 Z" /></clipPath></defs><g
     transform="matrix(1.3333333,0,0,-1.3333333,0,1122.52)"
     id="g10"><g
       id="g12" /><g
       id="g14"><g
         clip-path="url(#clipPath20)"
         id="g16"><path
           id="path22"
           style="fill:#ffffff;fill-opacity:1;fill-rule:nonzero;stroke:none"
           d="M 0,841.89 H 596 V -0.1099854 H 0 Z" /></g></g><g
       id="g24"><g
         clip-path="url(#clipPath30)"
         id="g26"><g
           clip-path="url(#clipPath36)"
           id="g32"><g
             transform="rotate(-90,404.0049,114.7124)"
             id="g38"><path
               id="path40"
               style="fill:none;stroke:#000000;stroke-width:0.5;stroke-linecap:butt;stroke-linejoin:miter;stroke-miterlimit:4;stroke-dasharray:none;stroke-opacity:1"
               d="M 0,0 H 138.6313" /></g></g></g></g><g
       id="g42"><g
         clip-path="url(#clipPath48)"
         id="g44"><g
           clip-path="url(#clipPath54)"
           id="g50"><g
             transform="translate(289.2507,311.5445)"
             id="g56"><path
               id="path58"
               style="fill:none;stroke:#000000;stroke-width:0.5;stroke-linecap:butt;stroke-linejoin:miter;stroke-miterlimit:4;stroke-dasharray:none;stroke-opacity:1"
               d="M 0,71.44865 C 0.680731,59.5187 1.72426,47.61528 3.12895,35.75708 4.54782,23.77918 6.334422,11.85379 8.485897,0" /></g></g></g></g><g
       id="g60"><g
         clip-path="url(#clipPath66)"
         id="g62"><g
           clip-path="url(#clipPath72)"
           id="g68"><g
             transform="matrix(0,-1,-1,0,306.1807,518.7173)"
             id="g74"><path
               id="path76"
               style="fill:none;stroke:#000000;stroke-width:0.5;stroke-linecap:butt;stroke-linejoin:miter;stroke-miterlimit:4;stroke-dasharray:none;stroke-opacity:1"
               d="M 0,0 H 138.6313" /></g></g></g></g><g
       id="g78"><g
         clip-path="url(#clipPath84)"
         id="g80"><g
           clip-path="url(#clipPath90)"
           id="g86"><g
             transform="matrix(-1,0,0,1,306.2225,311.5445)"
             id="g92"><path
               id="path94"
               style="fill:none;stroke:#000000;stroke-width:0.5;stroke-linecap:butt;stroke-linejoin:miter;stroke-miterlimit:4;stroke-dasharray:none;stroke-opacity:1"
               d="M 0,71.44865 C 0.680731,59.5187 1.72426,47.61528 3.12895,35.75708 4.54782,23.77918 6.334422,11.85379 8.485897,0" /></g></g></g></g><g
       id="g96"><g
         clip-path="url(#clipPath102)"
         id="g98"><g
           transform="matrix(1,0,0,-1,306.3752,654.4272)"
           id="g104"><path
             id="path106"
             style="fill:none;stroke:#53585f;stroke-width:1;stroke-linecap:butt;stroke-linejoin:miter;stroke-miterlimit:4;stroke-dasharray:none;stroke-opacity:0.70999995"
             d="M 0,0 V 17.17797 H 12.62595 Z" /></g></g></g><g
       id="g108"><g
         clip-path="url(#clipPath114)"
         id="g110"><g
           clip-path="url(#clipPath120)"
           id="g116"><g
             transform="translate(306.3752,620.0712)"
             id="g122"><path
               id="path124"
               style="fill:none;stroke:#53585f;stroke-width:1;stroke-linecap:butt;stroke-linejoin:miter;stroke-miterlimit:4;stroke-dasharray:none;stroke-opacity:0.70999995"
               d="M 0,0 V 17.17797 H 12.62595 Z" /></g></g></g></g><g
       id="g126"><g
         clip-path="url(#clipPath132)"
         id="g128"><g
           transform="rotate(180,144.62535,310.0356)"
           id="g134"><path
             id="path136"
             style="fill:none;stroke:#53585f;stroke-width:1;stroke-linecap:butt;stroke-linejoin:miter;stroke-miterlimit:4;stroke-dasharray:none;stroke-opacity:0.70999995"
             d="M 0,0 V 17.17797 H 12.62595 Z" /></g></g></g><g
       id="g138"><g
         clip-path="url(#clipPath144)"
         id="g140"><g
           clip-path="url(#clipPath150)"
           id="g146"><g
             transform="matrix(-1,0,0,1,289.2507,585.7153)"
             id="g152"><path
               id="path154"
               style="fill:none;stroke:#53585f;stroke-width:1;stroke-linecap:butt;stroke-linejoin:miter;stroke-miterlimit:4;stroke-dasharray:none;stroke-opacity:0.70999995"
               d="M 0,0 V 17.17797 H 12.62595 Z" /></g></g></g></g><g
       id="g156"><g
         clip-path="url(#clipPath162)"
         id="g158"><g
           transform="matrix(1,0,0,-1,306.3752,585.7153)"
           id="g164"><path
             id="path166"
             style="fill:none;stroke:#53585f;stroke-width:1;stroke-linecap:butt;stroke-linejoin:miter;stroke-miterlimit:4;stroke-dasharray:none;stroke-opacity:0.70999995"
             d="M 0,0 V 17.17797 H 12.62595 Z" /></g></g></g><g
       id="g168"><g
         clip-path="url(#clipPath174)"
         id="g170"><g
           clip-path="url(#clipPath180)"
           id="g176"><g
             transform="translate(306.3752,551.3593)"
             id="g182"><path
               id="path184"
               style="fill:none;stroke:#53585f;stroke-width:1;stroke-linecap:butt;stroke-linejoin:miter;stroke-miterlimit:4;stroke-dasharray:none;stroke-opacity:0.70999995"
               d="M 0,0 V 17.17797 H 12.62595 Z" /></g></g></g></g><g
       id="g186"><g
         clip-path="url(#clipPath192)"
         id="g188"><g
           transform="matrix(1,0,0,-1,306.3752,519.4768)"
           id="g194"><path
             id="path196"
             style="fill:none;stroke:#53585f;stroke-width:1;stroke-linecap:butt;stroke-linejoin:miter;stroke-miterlimit:4;stroke-dasharray:none;stroke-opacity:0.70999995"
             d="M 0,0 V 17.17797 H 12.62595 Z" /></g></g></g><g
       id="g198"><g
         clip-path="url(#clipPath204)"
         id="g200"><g
           clip-path="url(#clipPath210)"
           id="g206"><g
             transform="translate(306.3752,485.1209)"
             id="g212"><path
               id="path214"
               style="fill:none;stroke:#53585f;stroke-width:1;stroke-linecap:butt;stroke-linejoin:miter;stroke-miterlimit:4;stroke-dasharray:none;stroke-opacity:0.70999995"
               d="M 0,0 V 17.17797 H 12.62595 Z" /></g></g></g></g><g
       id="g216"><g
         clip-path="url(#clipPath222)"
         id="g218"><g
           transform="matrix(1,0,0,-1,306.3752,450.7649)"
           id="g224"><path
             id="path226"
             style="fill:none;stroke:#53585f;stroke-width:1;stroke-linecap:butt;stroke-linejoin:miter;stroke-miterlimit:4;stroke-dasharray:none;stroke-opacity:0.70999995"
             d="M 0,0 V 17.17797 H 12.62595 Z" /></g></g></g><g
       id="g228"><g
         clip-path="url(#clipPath234)"
         id="g230"><g
           clip-path="url(#clipPath240)"
           id="g236"><g
             transform="translate(306.3752,416.4089)"
             id="g242"><path
               id="path244"
               style="fill:none;stroke:#53585f;stroke-width:1;stroke-linecap:butt;stroke-linejoin:miter;stroke-miterlimit:4;stroke-dasharray:none;stroke-opacity:0.70999995"
               d="M 0,0 V 17.17797 H 12.62595 Z" /></g></g></g></g><g
       id="g246"><g
         clip-path="url(#clipPath252)"
         id="g248"><g
           transform="rotate(180,144.62535,275.67965)"
           id="g254"><path
             id="path256"
             style="fill:none;stroke:#53585f;stroke-width:1;stroke-linecap:butt;stroke-linejoin:miter;stroke-miterlimit:4;stroke-dasharray:none;stroke-opacity:0.70999995"
             d="M 0,0 V 16.32102 H 11.99609 Z" /></g></g></g><g
       id="g258"><g
         clip-path="url(#clipPath264)"
         id="g260"><g
           clip-path="url(#clipPath270)"
           id="g266"><g
             transform="matrix(-1,0,0,1,289.2507,518.7173)"
             id="g272"><path
               id="path274"
               style="fill:none;stroke:#53585f;stroke-width:1;stroke-linecap:butt;stroke-linejoin:miter;stroke-miterlimit:4;stroke-dasharray:none;stroke-opacity:0.70999995"
               d="M 0,0 V 16.32102 H 11.99609 Z" /></g></g></g></g><g
       id="g276"><g
         clip-path="url(#clipPath282)"
         id="g278"><g
           transform="rotate(180,144.62535,242.56045)"
           id="g284"><path
             id="path286"
             style="fill:none;stroke:#53585f;stroke-width:1;stroke-linecap:butt;stroke-linejoin:miter;stroke-miterlimit:4;stroke-dasharray:none;stroke-opacity:0.70999995"
             d="M 0,0 V 17.17797 H 12.62595 Z" /></g></g></g><g
       id="g288"><g
         clip-path="url(#clipPath294)"
         id="g290"><g
           clip-path="url(#clipPath300)"
           id="g296"><g
             transform="matrix(-1,0,0,1,289.2507,450.7649)"
             id="g302"><path
               id="path304"
               style="fill:none;stroke:#53585f;stroke-width:1;stroke-linecap:butt;stroke-linejoin:miter;stroke-miterlimit:4;stroke-dasharray:none;stroke-opacity:0.70999995"
               d="M 0,0 V 17.17797 H 12.62595 Z" /></g></g></g></g><g
       id="g306"><g
         clip-path="url(#clipPath312)"
         id="g308"><g
           transform="rotate(180,144.62535,208.2045)"
           id="g314"><path
             id="path316"
             style="fill:none;stroke:#53585f;stroke-width:1;stroke-linecap:butt;stroke-linejoin:miter;stroke-miterlimit:4;stroke-dasharray:none;stroke-opacity:0.70999995"
             d="M 0,0 V 17.17797 H 12.62595 Z" /></g></g></g><g
       id="g318"><g
         clip-path="url(#clipPath324)"
         id="g320"><g
           clip-path="url(#clipPath330)"
           id="g326"><g
             transform="matrix(-1,0,0,1,289.2507,382.0531)"
             id="g332"><path
               id="path334"
               style="fill:none;stroke:#53585f;stroke-width:1;stroke-linecap:butt;stroke-linejoin:miter;stroke-miterlimit:4;stroke-dasharray:none;stroke-opacity:0.70999995"
               d="M 0,0 V 17.17797 H 12.62595 Z" /></g></g></g></g><g
       id="g336"><g
         clip-path="url(#clipPath342)"
         id="g338"><g
           clip-path="url(#clipPath348)"
           id="g344"><g
             transform="rotate(90,-106.2683,412.449)"
             id="g350"><path
               id="path352"
               style="fill:none;stroke:#000000;stroke-width:0.5;stroke-linecap:butt;stroke-linejoin:miter;stroke-miterlimit:4;stroke-dasharray:none;stroke-opacity:1"
               d="M 0,0 H 138.6313" /></g></g></g></g><g
       id="g354"><g
         clip-path="url(#clipPath360)"
         id="g356"><g
           transform="rotate(180,153.11125,362.945)"
           id="g362"><path
             id="path364"
             style="fill:none;stroke:#000000;stroke-width:0.5;stroke-linecap:butt;stroke-linejoin:miter;stroke-miterlimit:4;stroke-dasharray:none;stroke-opacity:1"
             d="M 0,71.44865 C 0.680731,59.5187 1.72426,47.61528 3.12895,35.75708 4.54782,23.77918 6.334422,11.85379 8.485897,0" /></g></g></g><g
       id="g366"><g
         clip-path="url(#clipPath372)"
         id="g368"><g
           clip-path="url(#clipPath378)"
           id="g374"><g
             transform="matrix(0,1,1,0,289.2925,518.7173)"
             id="g380"><path
               id="path382"
               style="fill:none;stroke:#000000;stroke-width:0.5;stroke-linecap:butt;stroke-linejoin:miter;stroke-miterlimit:4;stroke-dasharray:none;stroke-opacity:1"
               d="M 0,0 H 138.6313" /></g></g></g></g><g
       id="g384"><g
         clip-path="url(#clipPath390)"
         id="g386"><g
           transform="matrix(1,0,0,-1,289.2507,725.89)"
           id="g392"><path
             id="path394"
             style="fill:none;stroke:#000000;stroke-width:0.5;stroke-linecap:butt;stroke-linejoin:miter;stroke-miterlimit:4;stroke-dasharray:none;stroke-opacity:1"
             d="M 0,71.44865 C 0.680731,59.5187 1.72426,47.61528 3.12895,35.75708 4.54782,23.77918 6.334422,11.85379 8.485897,0" /></g></g></g><g
       id="g396"><g
         clip-path="url(#clipPath402)"
         id="g398"><g
           clip-path="url(#clipPath408)"
           id="g404"><g
             transform="matrix(-0.8489164,0.5285271,0.5285271,0.8489164,361.4183,609.3601)"
             id="g410"><path
               id="path412"
               style="fill:none;stroke:#000000;stroke-width:0.5;stroke-linecap:butt;stroke-linejoin:miter;stroke-miterlimit:4;stroke-dasharray:none;stroke-opacity:1"
               d="M 0,0 H 84.86172" /></g></g></g></g><g
       id="g414"><g
         clip-path="url(#clipPath420)"
         id="g416"><g
           clip-path="url(#clipPath426)"
           id="g422"><g
             transform="matrix(-0.8489164,0.5285271,0.5285271,0.8489164,361.4183,540.6513)"
             id="g428"><path
               id="path430"
               style="fill:none;stroke:#000000;stroke-width:0.5;stroke-linecap:butt;stroke-linejoin:miter;stroke-miterlimit:4;stroke-dasharray:none;stroke-opacity:1"
               d="M 0,0 H 84.86172" /></g></g></g></g><g
       id="g432"><g
         clip-path="url(#clipPath438)"
         id="g434"><g
           clip-path="url(#clipPath444)"
           id="g440"><g
             transform="matrix(-0.8489164,0.5285271,0.5285271,0.8489164,361.4183,474.4129)"
             id="g446"><path
               id="path448"
               style="fill:none;stroke:#000000;stroke-width:0.5;stroke-linecap:butt;stroke-linejoin:miter;stroke-miterlimit:4;stroke-dasharray:none;stroke-opacity:1"
               d="M 0,0 H 84.86172" /></g></g></g></g><g
       id="g450"><g
         clip-path="url(#clipPath456)"
         id="g452"><g
           clip-path="url(#clipPath462)"
           id="g458"><g
             transform="matrix(-0.8489164,0.5285271,0.5285271,0.8489164,361.4234,405.701)"
             id="g464"><path
               id="path466"
               style="fill:none;stroke:#000000;stroke-width:0.5;stroke-linecap:butt;stroke-linejoin:miter;stroke-miterlimit:4;stroke-dasharray:none;stroke-opacity:1"
               d="M 0,0 H 84.86172" /></g></g></g></g><g
       id="g468"><g
         clip-path="url(#clipPath474)"
         id="g470"><g
           clip-path="url(#clipPath480)"
           id="g476"><g
             transform="rotate(31.905992,-532.42626,595.32137)"
             id="g482"><path
               id="path484"
               style="fill:none;stroke:#000000;stroke-width:0.5;stroke-linecap:butt;stroke-linejoin:miter;stroke-miterlimit:4;stroke-dasharray:none;stroke-opacity:1"
               d="M 0,0 H 84.86172" /></g></g></g></g><g
       id="g486"><g
         clip-path="url(#clipPath492)"
         id="g488"><g
           clip-path="url(#clipPath498)"
           id="g494"><g
             transform="rotate(31.905992,-652.61173,629.67732)"
             id="g500"><path
               id="path502"
               style="fill:none;stroke:#000000;stroke-width:0.5;stroke-linecap:butt;stroke-linejoin:miter;stroke-miterlimit:4;stroke-dasharray:none;stroke-opacity:1"
               d="M 0,0 H 84.86172" /></g></g></g></g><g
       id="g504"><g
         clip-path="url(#clipPath510)"
         id="g506"><g
           clip-path="url(#clipPath516)"
           id="g512"><g
             transform="rotate(31.905992,-768.47092,662.79658)"
             id="g518"><path
               id="path520"
               style="fill:none;stroke:#000000;stroke-width:0.5;stroke-linecap:butt;stroke-linejoin:miter;stroke-miterlimit:4;stroke-dasharray:none;stroke-opacity:1"
               d="M 0,0 H 84.86172" /></g></g></g></g><g
       id="g522"><g
         clip-path="url(#clipPath528)"
         id="g524"><g
           clip-path="url(#clipPath534)"
           id="g530"><g
             transform="rotate(31.905992,-888.65639,697.15253)"
             id="g536"><path
               id="path538"
               style="fill:none;stroke:#000000;stroke-width:0.5;stroke-linecap:butt;stroke-linejoin:miter;stroke-miterlimit:4;stroke-dasharray:none;stroke-opacity:1"
               d="M 0,0 H 84.86172" /></g></g></g></g><g
       id="g540"><g
         clip-path="url(#clipPath546)"
         id="g542"><g
           clip-path="url(#clipPath552)"
           id="g548"><g
             transform="matrix(0.9998477,0.01745241,0.01745241,-0.9998477,221,574.8084)"
             id="g554"><path
               id="path556"
               style="fill:none;stroke:#000000;stroke-width:0.5;stroke-linecap:butt;stroke-linejoin:miter;stroke-miterlimit:4;stroke-dasharray:none;stroke-opacity:1"
               d="M 13.16807,0 11.9591,0.904762 11.84993,0.8044397 5.192841,4.370912 2.647706,5.807663 2.210493,6.115258 1.597137,6.618792 1.009785,7.191704 0.4951411,7.811501 0,8.515309 2.43096,12.73152 3.694694,12.47894 4.938353,12.18111 5.936612,11.80197 7.106014,11.10141 8.484499,10.12564 10.69119,8.216116 13.33758,5.73693 13.1075,5.074992 12.8686,4.295978 12.75573,3.455852 12.76792,2.353389 12.80749,1.737658 13.88976,0.7763903" /></g></g></g></g><g
       id="g558"><g
         clip-path="url(#clipPath564)"
         id="g560"><g
           clip-path="url(#clipPath570)"
           id="g566"><g
             transform="rotate(-179,189.61014,269.15437)"
             id="g572"><path
               id="path574"
               style="fill:none;stroke:#000000;stroke-width:0.5;stroke-linecap:butt;stroke-linejoin:miter;stroke-miterlimit:4;stroke-dasharray:none;stroke-opacity:1"
               d="M 13.16807,0 11.9591,0.904762 11.84993,0.8044397 5.192841,4.370912 2.647706,5.807663 2.210493,6.115258 1.597137,6.618792 1.009785,7.191704 0.4951411,7.811501 0,8.515309 2.43096,12.73152 3.694694,12.47894 4.938353,12.18111 5.936612,11.80197 7.106014,11.10141 8.484499,10.12564 10.69119,8.216116 13.33758,5.73693 13.1075,5.074992 12.8686,4.295978 12.75573,3.455852 12.76792,2.353389 12.80749,1.737658 13.88976,0.7763903" /></g></g></g></g><g
       id="g576"><g
         clip-path="url(#clipPath582)"
         id="g578"><g
           clip-path="url(#clipPath588)"
           id="g584"><g
             transform="rotate(-179,189.32173,236.10667)"
             id="g590"><path
               id="path592"
               style="fill:none;stroke:#000000;stroke-width:0.5;stroke-linecap:butt;stroke-linejoin:miter;stroke-miterlimit:4;stroke-dasharray:none;stroke-opacity:1"
               d="M 13.16807,0 11.9591,0.904762 11.84993,0.8044397 5.192841,4.370912 2.647706,5.807663 2.210493,6.115258 1.597137,6.618792 1.009785,7.191704 0.4951411,7.811501 0,8.515309 2.43096,12.73152 3.694694,12.47894 4.938353,12.18111 5.936612,11.80197 7.106014,11.10141 8.484499,10.12564 10.69119,8.216116 13.33758,5.73693 13.1075,5.074992 12.8686,4.295978 12.75573,3.455852 12.76792,2.353389 12.80749,1.737658 13.88976,0.7763903" /></g></g></g></g><g
       id="g594"><g
         clip-path="url(#clipPath600)"
         id="g596"><g
           clip-path="url(#clipPath606)"
           id="g602"><g
             transform="rotate(-179,189.0208,201.62382)"
             id="g608"><path
               id="path610"
               style="fill:none;stroke:#000000;stroke-width:0.5;stroke-linecap:butt;stroke-linejoin:miter;stroke-miterlimit:4;stroke-dasharray:none;stroke-opacity:1"
               d="M 13.16807,0 11.9591,0.904762 11.84993,0.8044397 5.192841,4.370912 2.647706,5.807663 2.210493,6.115258 1.597137,6.618792 1.009785,7.191704 0.4951411,7.811501 0,8.515309 2.43096,12.73152 3.694694,12.47894 4.938353,12.18111 5.936612,11.80197 7.106014,11.10141 8.484499,10.12564 10.69119,8.216116 13.33758,5.73693 13.1075,5.074992 12.8686,4.295978 12.75573,3.455852 12.76792,2.353389 12.80749,1.737658 13.88976,0.7763903" /></g></g></g></g><g
       id="g612"><g
         clip-path="url(#clipPath618)"
         id="g614"><g
           clip-path="url(#clipPath624)"
           id="g620"><g
             transform="rotate(-179,189.9108,303.60752)"
             id="g626"><path
               id="path628"
               style="fill:none;stroke:#000000;stroke-width:0.5;stroke-linecap:butt;stroke-linejoin:miter;stroke-miterlimit:4;stroke-dasharray:none;stroke-opacity:1"
               d="M 13.16807,0 11.9591,0.904762 11.84993,0.8044397 5.192841,4.370912 2.647706,5.807663 2.210493,6.115258 1.597137,6.618792 1.009785,7.191704 0.4951411,7.811501 0,8.515309 2.43096,12.73152 3.694694,12.47894 4.938353,12.18111 5.936612,11.80197 7.106014,11.10141 8.484499,10.12564 10.69119,8.216116 13.33758,5.73693 13.1075,5.074992 12.8686,4.295978 12.75573,3.455852 12.76792,2.353389 12.80749,1.737658 13.88976,0.7763903" /></g></g></g></g><g
       id="g630"><g
         clip-path="url(#clipPath636)"
         id="g632"><g
           clip-path="url(#clipPath642)"
           id="g638"><g
             transform="matrix(0.9998477,0.01745241,0.01745241,-0.9998477,221,506.57)"
             id="g644"><path
               id="path646"
               style="fill:none;stroke:#000000;stroke-width:0.5;stroke-linecap:butt;stroke-linejoin:miter;stroke-miterlimit:4;stroke-dasharray:none;stroke-opacity:1"
               d="M 13.16807,0 11.9591,0.904762 11.84993,0.8044397 5.192841,4.370912 2.647706,5.807663 2.210493,6.115258 1.597137,6.618792 1.009785,7.191704 0.4951411,7.811501 0,8.515309 2.43096,12.73152 3.694694,12.47894 4.938353,12.18111 5.936612,11.80197 7.106014,11.10141 8.484499,10.12564 10.69119,8.216116 13.33758,5.73693 13.1075,5.074992 12.8686,4.295978 12.75573,3.455852 12.76792,2.353389 12.80749,1.737658 13.88976,0.7763903" /></g></g></g></g><g
       id="g648"><g
         clip-path="url(#clipPath654)"
         id="g650"><g
           clip-path="url(#clipPath660)"
           id="g656"><g
             transform="matrix(0.9998477,0.01745241,0.01745241,-0.9998477,221,439.8581)"
             id="g662"><path
               id="path664"
               style="fill:none;stroke:#000000;stroke-width:0.5;stroke-linecap:butt;stroke-linejoin:miter;stroke-miterlimit:4;stroke-dasharray:none;stroke-opacity:1"
               d="M 13.16807,0 11.9591,0.904762 11.84993,0.8044397 5.192841,4.370912 2.647706,5.807663 2.210493,6.115258 1.597137,6.618792 1.009785,7.191704 0.4951411,7.811501 0,8.515309 2.43096,12.73152 3.694694,12.47894 4.938353,12.18111 5.936612,11.80197 7.106014,11.10141 8.484499,10.12564 10.69119,8.216116 13.33758,5.73693 13.1075,5.074992 12.8686,4.295978 12.75573,3.455852 12.76792,2.353389 12.80749,1.737658 13.88976,0.7763903" /></g></g></g></g><g
       id="g666"><g
         clip-path="url(#clipPath672)"
         id="g668"><g
           clip-path="url(#clipPath678)"
           id="g674"><g
             transform="matrix(0.9998477,0.01745241,0.01745241,-0.9998477,221,371.4039)"
             id="g680"><path
               id="path682"
               style="fill:none;stroke:#000000;stroke-width:0.5;stroke-linecap:butt;stroke-linejoin:miter;stroke-miterlimit:4;stroke-dasharray:none;stroke-opacity:1"
               d="M 13.16807,0 11.9591,0.904762 11.84993,0.8044397 5.192841,4.370912 2.647706,5.807663 2.210493,6.115258 1.597137,6.618792 1.009785,7.191704 0.4951411,7.811501 0,8.515309 2.43096,12.73152 3.694694,12.47894 4.938353,12.18111 5.936612,11.80197 7.106014,11.10141 8.484499,10.12564 10.69119,8.216116 13.33758,5.73693 13.1075,5.074992 12.8686,4.295978 12.75573,3.455852 12.76792,2.353389 12.80749,1.737658 13.88976,0.7763903" /></g></g></g></g></g></svg>